<svg width="17" height="17" viewBox="0 0 17 17" fill="none" xmlns="http://www.w3.org/2000/svg">
<path fill-rule="evenodd" clip-rule="evenodd" d="M8.5 1.0944C4.21104 1.0944 0.738792 4.54894 0.738792 8.80319C0.738792 11.9269 2.61092 14.6151 5.30542 15.8242C5.58733 15.951 5.86288 15.9007 6.07821 15.7392C6.19729 15.6465 6.29329 15.5274 6.35867 15.3914C6.42404 15.2553 6.45703 15.106 6.45504 14.9551V14.5513L5.49383 14.421C5.48671 14.42 5.47963 14.4188 5.47258 14.4174C4.94275 14.314 4.58504 14.1277 4.32296 13.8593C4.10267 13.6333 3.96808 13.3627 3.85404 13.1332L3.81438 13.0532C3.70897 12.8333 3.59387 12.6183 3.46942 12.4086C3.37379 12.257 3.29942 12.1791 3.22575 12.1302C3.03875 12.0063 2.85883 11.7959 2.85883 11.5331C2.85819 11.4575 2.87439 11.3826 2.90624 11.314C2.93809 11.2454 2.98481 11.1848 3.043 11.1364C3.15283 11.0495 3.28971 11.0039 3.42975 11.0075C3.587 11.0075 3.73504 11.0557 3.85829 11.1109C3.98437 11.1676 4.10975 11.2427 4.22662 11.3206C4.51137 11.5104 4.79187 11.735 5.02917 12.0119C5.27637 12.2995 5.45133 12.4823 5.71483 12.5198C5.93158 12.551 6.15258 12.5517 6.32471 12.5439C6.34863 12.4076 6.38808 12.2745 6.44229 12.1472C6.23207 12.0982 6.02469 12.0376 5.82108 11.9659C5.35783 11.8016 4.84146 11.5459 4.49437 11.1584C4.11329 10.732 3.87742 10.3516 3.74567 9.90677C3.61746 9.47327 3.59621 9.00365 3.59621 8.42565C3.59621 7.54023 3.97942 6.79435 4.267 6.3984C4.15651 6.05174 4.0771 5.69593 4.02971 5.33519C3.99832 5.10769 3.99856 4.87695 4.03042 4.64952C4.06583 4.44198 4.15437 4.18698 4.38742 4.03327C4.61196 3.88381 4.87546 3.89019 5.08087 3.92844C5.29408 3.96881 5.51579 4.05735 5.71979 4.15865C6.052 4.32298 6.38208 4.54256 6.62929 4.72885C7.05571 4.60348 7.81008 4.44198 8.49221 4.4271H8.50779C9.19062 4.44198 9.911 4.60348 10.3268 4.72815C10.5747 4.54256 10.9041 4.32227 11.2356 4.15865C11.4396 4.05735 11.6606 3.96881 11.8745 3.92844C12.0799 3.89019 12.3434 3.88381 12.5687 4.03256C12.801 4.18698 12.8902 4.44198 12.925 4.64952C12.9611 4.86556 12.9526 5.1071 12.925 5.33519C12.8778 5.6959 12.7986 6.05171 12.6884 6.3984C12.976 6.79506 13.3592 7.54094 13.3592 8.42565C13.3592 9.00365 13.3379 9.47327 13.2104 9.90606C13.078 10.3523 12.8421 10.732 12.461 11.1584C12.1139 11.5459 11.5975 11.8016 11.1343 11.9659C10.8884 12.0523 10.6371 12.1226 10.382 12.1763C10.4692 12.4398 10.5003 12.653 10.5003 12.7755V14.9643C10.5003 15.2972 10.6555 15.5812 10.8757 15.747C11.0897 15.9092 11.3645 15.9595 11.6464 15.8362C14.3664 14.6377 16.2605 11.9425 16.2605 8.80248C16.2605 4.54894 12.7897 1.0944 8.5 1.0944ZM6.71217 13.2529C6.528 13.2791 6.71146 13.2529 6.71146 13.2529H6.70933L6.70367 13.2544L6.68313 13.2572C6.57792 13.2695 6.47231 13.2783 6.3665 13.2834C6.16675 13.2926 5.89262 13.2933 5.61142 13.2529C5.05112 13.1736 4.71042 12.7769 4.49013 12.5191L4.46887 12.495C4.39685 12.4115 4.31948 12.3327 4.23725 12.2591C4.31021 12.3937 4.386 12.5439 4.46746 12.7054L4.47454 12.7196L4.51067 12.7932C4.63462 13.0397 4.71608 13.2041 4.85137 13.3415C4.98312 13.4761 5.18854 13.6064 5.60362 13.6886L6.87437 13.8607C6.96313 13.8727 7.04451 13.9165 7.10339 13.984C7.16227 14.0515 7.19466 14.138 7.19454 14.2276V14.9551C7.19454 15.5217 6.92892 16.0268 6.52162 16.3328C6.30779 16.4962 6.0534 16.5981 5.7859 16.6275C5.5184 16.657 5.24794 16.6129 5.00367 16.4999C2.05558 15.1775 0 12.2329 0 8.80319C0 4.13385 3.80871 0.354187 8.5 0.354187C13.1913 0.354187 17 4.13385 17 8.80319C17 12.2506 14.9182 15.203 11.9446 16.5141C11.7002 16.6249 11.4302 16.6672 11.1635 16.6363C10.8969 16.6055 10.6437 16.5028 10.4309 16.3391C10.2206 16.1772 10.0506 15.9687 9.93432 15.7301C9.81806 15.4914 9.75868 15.229 9.76083 14.9636V12.7748C9.76083 12.7252 9.72612 12.4391 9.53275 12.0544C9.50606 12.0011 9.49261 11.9421 9.49355 11.8825C9.49449 11.8229 9.50978 11.7643 9.53813 11.7119C9.56649 11.6594 9.60707 11.6145 9.65644 11.5811C9.7058 11.5476 9.76251 11.5265 9.82175 11.5196C10.0647 11.4927 10.4741 11.4141 10.8871 11.2675C11.3078 11.1187 11.6854 10.9147 11.9099 10.664C12.2435 10.2914 12.41 10.0052 12.5014 9.69569C12.5963 9.37481 12.6204 9.00152 12.6204 8.42565C12.6204 7.61744 12.1954 6.93815 11.9999 6.71927C11.9555 6.6698 11.9252 6.60931 11.9123 6.54413C11.8993 6.47896 11.9041 6.41149 11.9262 6.34881C12.0254 6.06973 12.1458 5.63552 12.1918 5.24806C12.2145 5.05327 12.2159 4.89035 12.1961 4.77277C12.1916 4.72978 12.1786 4.68811 12.1578 4.65023C12.1091 4.64179 12.0591 4.64396 12.0112 4.6566C11.8908 4.67927 11.7371 4.73594 11.5628 4.82235C11.2157 4.99377 10.8545 5.24735 10.6307 5.42869C10.5813 5.46873 10.5224 5.49533 10.4597 5.50588C10.3971 5.51643 10.3327 5.51058 10.273 5.4889C9.69944 5.30129 9.10289 5.19332 8.5 5.16802C7.78671 5.18502 6.96362 5.3876 6.68242 5.4889C6.62266 5.51058 6.55832 5.51643 6.49564 5.50588C6.43295 5.49533 6.37407 5.46873 6.32471 5.42869C6.03524 5.19564 5.72292 4.9925 5.39254 4.82235C5.25067 4.74785 5.09971 4.69213 4.94346 4.6566C4.89584 4.64407 4.84608 4.64189 4.79754 4.65023C4.77672 4.68811 4.76371 4.72978 4.75929 4.77277C4.73946 4.89035 4.74087 5.05327 4.76354 5.24806C4.80958 5.63552 4.93071 6.06973 5.02917 6.34881C5.07379 6.47631 5.04617 6.61798 4.9555 6.71927C4.76 6.93815 4.335 7.61744 4.335 8.42565C4.335 9.00081 4.35908 9.37481 4.454 9.69569C4.54608 10.0052 4.71183 10.2907 5.04475 10.664C5.27 10.9147 5.64683 11.1187 6.06829 11.2675C6.41309 11.3895 6.77002 11.474 7.13292 11.5196C7.20758 11.5277 7.27803 11.5582 7.3349 11.6072C7.39177 11.6563 7.43237 11.7215 7.45129 11.7941C7.4702 11.8668 7.46654 11.9435 7.4408 12.014C7.41506 12.0846 7.36844 12.1456 7.30717 12.189C7.19029 12.2726 7.11308 12.4228 7.06987 12.5963C7.04757 12.6857 7.03428 12.777 7.03021 12.869V12.8825C7.03111 12.9723 6.99936 13.0594 6.94085 13.1275C6.88235 13.1957 6.80108 13.2402 6.71217 13.2529V13.2529Z" fill="white"/>
</svg>
