<svg width="20" height="20" viewBox="0 0 20 20" fill="none" xmlns="http://www.w3.org/2000/svg">
<path d="M10.625 10C10.625 12.9293 8.38203 15.3125 5.625 15.3125C2.86797 15.3125 0.625 12.9293 0.625 10C0.625 7.0707 2.86797 4.6875 5.625 4.6875C8.38203 4.6875 10.625 7.0707 10.625 10ZM18.75 5C18.5842 5 18.4253 5.06585 18.3081 5.18306C18.1908 5.30027 18.125 5.45924 18.125 5.625V14.375C18.125 14.5408 18.1908 14.6997 18.3081 14.8169C18.4253 14.9342 18.5842 15 18.75 15C18.9158 15 19.0747 14.9342 19.1919 14.8169C19.3092 14.6997 19.375 14.5408 19.375 14.375V5.625C19.375 5.45924 19.3092 5.30027 19.1919 5.18306C19.0747 5.06585 18.9158 5 18.75 5ZM14.375 5C13.931 5 13.0937 5.21563 12.4747 6.66023C12.088 7.56258 11.875 8.74867 11.875 10C11.875 11.2513 12.088 12.4375 12.4747 13.3398C13.0938 14.7843 13.931 15 14.375 15C14.819 15 15.6563 14.7844 16.2753 13.3398C16.662 12.4374 16.875 11.2513 16.875 10C16.875 8.74867 16.662 7.5625 16.2753 6.66023C15.6562 5.2157 14.819 5 14.375 5Z" fill="white"/>
</svg>
