<svg width="17" height="17" viewBox="0 0 17 17" fill="none" xmlns="http://www.w3.org/2000/svg">
<g clip-path="url(#clip0)">
<path d="M16.2918 2.13206C16.2918 2.13206 14.8624 2.9764 14.0677 3.21581C13.6411 2.7253 13.0741 2.37764 12.4435 2.21984C11.8128 2.06205 11.149 2.10174 10.5416 2.33355C9.9343 2.56536 9.41281 2.9781 9.04769 3.51594C8.68257 4.05379 8.49145 4.6908 8.50016 5.34081V6.04915C7.25536 6.08142 6.0219 5.80535 4.90963 5.2455C3.79736 4.68566 2.8408 3.85943 2.12516 2.8404C2.12516 2.8404 -0.70817 9.21539 5.66683 12.0487C4.20804 13.039 2.47023 13.5355 0.708496 13.4654C7.0835 17.0071 14.8752 13.4654 14.8752 5.31956C14.8752 5.12265 14.8553 4.92573 14.8185 4.73164C15.541 4.01906 16.2918 2.13206 16.2918 2.13206Z" stroke="white" stroke-width="1.5" stroke-linecap="round" stroke-linejoin="round"/>
</g>
<defs>
<clipPath id="clip0">
<rect width="17" height="17" fill="white"/>
</clipPath>
</defs>
</svg>
